<svg version="1.0" xmlns="http://www.w3.org/2000/svg"
     width="16" height="16" viewBox="0 0 229 231"
     preserveAspectRatio="xMidYMid meet">

    <g transform="translate(0,231) scale(0.1,-0.1)"
       fill="#2d58a7" stroke="none">
        <path d="M0 1155 l0 -1155 1145 0 1145 0 0 1155 0 1155 -1145 0 -1145 0 0
-1155z m1425 876 c132 -73 252 -144 267 -158 56 -54 58 -64 58 -395 0 -339 -4
-360 -71 -410 -63 -47 -469 -268 -507 -276 -21 -5 -53 -7 -70 -4 -18 2 -143
66 -280 141 -233 129 -249 140 -277 186 l-30 48 0 311 c0 350 2 362 74 412 49
35 460 265 491 275 60 20 101 5 345 -130z m303 -1287 c22 -25 22 -30 22 -283
0 -211 -3 -261 -14 -270 -9 -7 -40 -11 -78 -9 l-63 3 -3 268 c-1 178 1 274 8
288 24 45 89 46 128 3z m-882 -102 c16 -10 33 -46 113 -240 40 -96 71 -183 69
-195 -3 -20 -10 -22 -71 -25 l-68 -3 -14 36 -15 35 -110 0 -110 0 -17 -35 -17
-36 -66 3 c-61 3 -65 4 -68 28 -3 28 150 401 175 425 10 11 38 15 101 15 48 0
92 -4 98 -8z m602 -1 c9 -5 12 -26 10 -67 l-3 -59 -62 -3 -63 -3 -2 -162 -3
-162 -63 -3 c-38 -2 -69 2 -78 9 -11 9 -14 45 -14 165 l0 153 -62 3 -63 3 -3
54 c-2 29 -1 60 2 67 4 11 44 14 198 14 106 0 199 -4 206 -9z"/>
        <path d="M1075 1989 c-189 -102 -378 -215 -395 -236 -19 -24 -20 -40 -20 -279
l0 -252 25 -30 c38 -45 403 -242 448 -242 28 0 84 26 237 113 110 62 208 123
217 137 16 22 18 52 18 275 0 215 -2 254 -16 276 -17 26 -405 247 -449 255
-15 3 -41 -4 -65 -17z m98 -40 c34 -15 51 -51 51 -107 l1 -47 -92 -3 -93 -3 0
56 c0 49 4 60 29 86 31 31 64 36 104 18z m46 -283 c7 -9 11 -40 9 -78 l-3 -63
-225 0 -225 0 -3 64 c-2 35 -1 70 2 77 8 21 428 20 445 0z m269 2 c14 -14 16
-116 3 -136 -5 -9 -28 -12 -77 -10 l-69 3 -3 64 c-2 35 -1 70 2 77 7 18 127
19 144 2z m-568 -379 l0 -111 -72 41 -73 40 -3 70 -3 71 76 0 75 0 0 -111z
m310 -28 c0 -139 0 -140 -27 -160 -41 -33 -70 -36 -119 -13 l-44 22 0 145 0
145 95 0 95 0 0 -139z m268 76 c2 -33 -2 -65 -8 -72 -13 -16 -124 -75 -140
-75 -6 0 -10 39 -10 105 l0 106 78 -3 77 -3 3 -58z"/>
        <path d="M736 502 c-2 -4 -14 -31 -25 -60 l-21 -52 60 0 c67 0 64 -8 26 83
-16 36 -29 46 -40 29z"/>
    </g>
</svg>