<?xml version="1.0" encoding="UTF-8"?>
<svg xmlns="http://www.w3.org/2000/svg" xmlns:xlink="http://www.w3.org/1999/xlink" width="24px" height="24px" viewBox="0 0 24 15" version="1.1">
<g _id="surface1">
<path style=" stroke:none;fill-rule:nonzero;fill:rgb(0%,0%,0%);fill-opacity:1;" d="M 0.734375 0.046875 C 0.511719 0.113281 0.257812 0.308594 0.136719 0.511719 L 0.0234375 0.703125 L 0.0078125 7.433594 C -0.00390625 14.867188 -0.0234375 14.359375 0.292969 14.707031 C 0.582031 15.027344 -0.40625 15.003906 12.074219 14.992188 L 23.324219 14.976562 L 23.519531 14.855469 C 23.625 14.785156 23.773438 14.632812 23.84375 14.515625 L 23.976562 14.296875 L 23.992188 7.601562 C 24 2.765625 23.984375 0.847656 23.949219 0.710938 C 23.878906 0.460938 23.523438 0.117188 23.269531 0.0507812 C 23.039062 -0.0078125 0.945312 -0.0117188 0.734375 0.046875 Z M 23.171875 0.542969 C 23.238281 0.566406 23.335938 0.652344 23.386719 0.734375 C 23.480469 0.882812 23.480469 0.964844 23.480469 7.492188 C 23.480469 14.652344 23.496094 14.257812 23.238281 14.429688 C 23.144531 14.492188 22.007812 14.5 11.992188 14.5 L 0.847656 14.5 L 0.695312 14.371094 L 0.542969 14.238281 L 0.527344 7.558594 C 0.519531 0.941406 0.519531 0.882812 0.613281 0.734375 C 0.664062 0.652344 0.753906 0.566406 0.8125 0.542969 C 0.960938 0.488281 23.015625 0.484375 23.171875 0.542969 Z M 23.171875 0.542969 "/>
<path style=" stroke:none;fill-rule:nonzero;fill:rgb(0%,0%,0%);fill-opacity:1;" d="M 5.8125 3.179688 C 5.613281 3.285156 5.554688 3.40625 5.554688 3.71875 C 5.554688 3.988281 5.566406 4.035156 5.679688 4.140625 C 5.832031 4.285156 5.960938 4.324219 6.25 4.292969 C 6.417969 4.273438 6.5 4.238281 6.597656 4.128906 C 6.710938 4.007812 6.730469 3.945312 6.730469 3.710938 C 6.730469 3.457031 6.714844 3.421875 6.570312 3.28125 C 6.429688 3.144531 6.382812 3.125 6.160156 3.125 C 6.019531 3.125 5.863281 3.152344 5.8125 3.179688 Z M 6.417969 3.414062 C 6.550781 3.507812 6.570312 3.808594 6.445312 3.953125 C 6.363281 4.054688 6.3125 4.078125 6.136719 4.078125 C 5.863281 4.078125 5.742188 3.964844 5.742188 3.714844 C 5.742188 3.464844 5.863281 3.351562 6.132812 3.351562 C 6.246094 3.351562 6.371094 3.378906 6.417969 3.414062 Z M 6.417969 3.414062 "/>
<path style=" stroke:none;fill-rule:nonzero;fill:rgb(0%,0%,0%);fill-opacity:1;" d="M 2.558594 4.640625 C 2.414062 4.78125 2.398438 4.816406 2.398438 5.070312 C 2.398438 5.308594 2.417969 5.367188 2.53125 5.488281 C 2.753906 5.722656 3.238281 5.734375 3.464844 5.496094 C 3.558594 5.398438 3.578125 5.332031 3.578125 5.078125 C 3.578125 4.917969 3.546875 4.75 3.515625 4.714844 C 3.386719 4.554688 3.222656 4.488281 2.972656 4.488281 C 2.75 4.488281 2.703125 4.503906 2.558594 4.640625 Z M 3.292969 4.804688 C 3.355469 4.863281 3.386719 4.953125 3.386719 5.074219 C 3.386719 5.324219 3.265625 5.4375 2.992188 5.4375 C 2.683594 5.4375 2.550781 5.269531 2.605469 4.957031 C 2.644531 4.773438 2.738281 4.71875 3.003906 4.714844 C 3.140625 4.714844 3.226562 4.738281 3.292969 4.804688 Z M 3.292969 4.804688 "/>
<path style=" stroke:none;fill-rule:nonzero;fill:rgb(0%,0%,0%);fill-opacity:1;" d="M 5.8125 4.539062 C 5.613281 4.644531 5.554688 4.765625 5.554688 5.078125 C 5.554688 5.347656 5.566406 5.394531 5.679688 5.5 C 5.832031 5.648438 5.960938 5.683594 6.25 5.652344 C 6.417969 5.632812 6.5 5.597656 6.597656 5.488281 C 6.710938 5.367188 6.730469 5.308594 6.730469 5.070312 C 6.730469 4.816406 6.714844 4.78125 6.570312 4.640625 C 6.429688 4.503906 6.382812 4.488281 6.160156 4.488281 C 6.019531 4.488281 5.863281 4.511719 5.8125 4.539062 Z M 6.398438 4.757812 C 6.5 4.808594 6.566406 5.0625 6.519531 5.207031 C 6.464844 5.371094 6.359375 5.4375 6.136719 5.4375 C 5.863281 5.4375 5.742188 5.324219 5.742188 5.074219 C 5.742188 4.832031 5.867188 4.714844 6.121094 4.714844 C 6.226562 4.714844 6.351562 4.734375 6.398438 4.757812 Z M 6.398438 4.757812 "/>
<path style=" stroke:none;fill-rule:nonzero;fill:rgb(0%,0%,0%);fill-opacity:1;" d="M 4.613281 4.917969 C 4.613281 5.015625 4.59375 5.027344 4.34375 5.039062 C 4.136719 5.046875 4.070312 5.070312 4.070312 5.121094 C 4.070312 5.171875 4.136719 5.191406 4.34375 5.203125 C 4.605469 5.214844 4.613281 5.21875 4.613281 5.347656 C 4.613281 5.425781 4.628906 5.484375 4.652344 5.484375 C 4.695312 5.484375 4.988281 5.183594 4.988281 5.144531 C 4.988281 5.101562 4.695312 4.804688 4.652344 4.804688 C 4.628906 4.804688 4.613281 4.851562 4.613281 4.917969 Z M 4.613281 4.917969 "/>
<path style=" stroke:none;fill-rule:nonzero;fill:rgb(0%,0%,0%);fill-opacity:1;" d="M 5.8125 5.898438 C 5.613281 6.003906 5.554688 6.125 5.554688 6.441406 C 5.554688 6.707031 5.566406 6.753906 5.679688 6.859375 C 5.832031 7.007812 5.960938 7.042969 6.25 7.011719 C 6.417969 6.992188 6.5 6.957031 6.597656 6.847656 C 6.710938 6.726562 6.730469 6.667969 6.730469 6.429688 C 6.730469 6.175781 6.714844 6.140625 6.570312 6 C 6.429688 5.863281 6.382812 5.847656 6.160156 5.847656 C 6.019531 5.847656 5.863281 5.875 5.8125 5.898438 Z M 6.398438 6.117188 C 6.5 6.167969 6.566406 6.421875 6.519531 6.566406 C 6.464844 6.730469 6.359375 6.796875 6.136719 6.796875 C 5.863281 6.796875 5.742188 6.683594 5.742188 6.433594 C 5.742188 6.191406 5.867188 6.074219 6.121094 6.074219 C 6.226562 6.074219 6.351562 6.09375 6.398438 6.117188 Z M 6.398438 6.117188 "/>
</g>
</svg>
