<?xml version="1.0" encoding="UTF-8"?>
<svg xmlns="http://www.w3.org/2000/svg" xmlns:xlink="http://www.w3.org/1999/xlink" width="24px" height="24px" viewBox="0 0 24 24" version="1.1">
<g _id="surface1">
<path style="fill-rule:nonzero;fill:rgb(100%,100%,100%);fill-opacity:1;stroke-width:119.999992;stroke-linecap:round;stroke-linejoin:miter;stroke:rgb(0%,0%,0%);stroke-opacity:1;stroke-miterlimit:4;" d="M 429.6875 -677.781047 L 1570.3125 -677.781047 C 1752.278646 -677.781047 1900.065104 -530.64563 1900.065104 -349.005005 L 1900.065104 453.72937 C 1900.065104 635.369995 1752.278646 782.505412 1570.3125 782.505412 L 429.6875 782.505412 C 247.721354 782.505412 99.934896 635.369995 99.934896 453.72937 L 99.934896 -349.005005 C 99.934896 -530.64563 247.721354 -677.781047 429.6875 -677.781047 Z M 429.6875 -677.781047 " transform="matrix(0.012,0,0,0.012,0,11.371654)"/>
<path style=" stroke:none;fill-rule:nonzero;fill:rgb(0%,0%,0%);fill-opacity:1;" d="M 6.035156 5.171875 C 6.03125 5.449219 6.035156 5.726562 6.035156 6.003906 C 5.796875 6.070312 5.582031 6.164062 5.375 6.28125 L 4.777344 5.6875 L 3.660156 6.8125 L 4.257812 7.40625 C 4.140625 7.613281 4.050781 7.832031 3.988281 8.058594 L 3.140625 8.0625 L 3.140625 9.644531 L 3.996094 9.640625 C 4.078125 9.953125 4.246094 10.230469 4.417969 10.480469 L 4.417969 9.113281 L 3.667969 9.117188 L 3.667969 8.585938 L 4.414062 8.585938 L 4.453125 8.375 C 4.515625 8.066406 4.636719 7.769531 4.808594 7.507812 L 4.929688 7.328125 L 4.40625 6.808594 L 4.78125 6.433594 L 5.304688 6.949219 L 5.484375 6.832031 C 5.757812 6.652344 6.054688 6.53125 6.351562 6.46875 L 6.5625 6.421875 L 6.558594 5.695312 L 7.101562 5.695312 L 7.097656 6.417969 L 8.515625 6.417969 C 8.382812 6.261719 7.832031 6.054688 7.625 5.996094 L 7.628906 5.171875 C 7.039062 5.171875 6.578125 5.171875 6.035156 5.171875 Z M 7.53125 6.6875 L 7.53125 7.519531 C 7.296875 7.585938 7.078125 7.679688 6.875 7.796875 L 6.277344 7.203125 L 5.15625 8.328125 L 5.753906 8.917969 C 5.640625 9.125 5.550781 9.347656 5.488281 9.574219 L 4.640625 9.578125 L 4.640625 11.160156 L 5.496094 11.15625 C 5.5625 11.390625 5.65625 11.605469 5.769531 11.808594 L 5.160156 12.417969 L 6.289062 13.53125 L 6.898438 12.921875 C 7.109375 13.039062 7.332031 13.128906 7.5625 13.191406 L 7.5625 14.054688 C 8.105469 14.058594 8.683594 14.054688 9.148438 14.054688 L 9.148438 13.183594 C 9.386719 13.117188 9.605469 13.023438 9.808594 12.910156 L 10.417969 13.507812 L 11.539062 12.386719 L 10.925781 11.785156 C 11.042969 11.578125 11.132812 11.355469 11.195312 11.128906 L 12.023438 11.121094 L 12.023438 9.539062 L 11.1875 9.546875 C 11.117188 9.308594 11.027344 9.097656 10.910156 8.894531 L 11.488281 8.3125 L 10.359375 7.199219 L 9.78125 7.78125 C 9.574219 7.664062 9.351562 7.574219 9.121094 7.511719 L 9.128906 6.6875 Z M 8.058594 7.210938 L 8.597656 7.210938 L 8.59375 7.933594 L 8.808594 7.976562 C 9.117188 8.039062 9.414062 8.160156 9.679688 8.332031 L 9.859375 8.449219 L 10.363281 7.941406 L 10.742188 8.316406 L 10.238281 8.824219 L 10.359375 9.003906 C 10.539062 9.273438 10.65625 9.5625 10.722656 9.863281 L 10.769531 10.074219 L 11.5 10.070312 L 11.5 10.597656 L 10.773438 10.605469 L 10.730469 10.816406 C 10.667969 11.125 10.546875 11.417969 10.375 11.683594 L 10.253906 11.863281 L 10.792969 12.390625 L 10.414062 12.765625 L 9.878906 12.238281 L 9.703125 12.359375 C 9.429688 12.535156 9.132812 12.660156 8.835938 12.71875 L 8.625 12.761719 L 8.625 13.53125 C 8.480469 13.53125 8.320312 13.53125 8.085938 13.53125 L 8.085938 12.769531 L 7.875 12.726562 C 7.5625 12.664062 7.265625 12.546875 7.003906 12.371094 L 6.824219 12.253906 L 6.285156 12.789062 L 5.90625 12.417969 L 6.445312 11.878906 L 6.320312 11.699219 C 6.144531 11.429688 6.023438 11.140625 5.957031 10.839844 L 5.914062 10.628906 L 5.164062 10.632812 L 5.164062 10.101562 L 5.910156 10.101562 L 5.953125 9.890625 C 6.011719 9.578125 6.132812 9.285156 6.308594 9.023438 L 6.425781 8.84375 L 5.902344 8.324219 L 6.277344 7.945312 L 6.804688 8.464844 L 6.980469 8.34375 C 7.253906 8.167969 7.542969 8.046875 7.847656 7.984375 L 8.058594 7.9375 Z M 8.335938 9.144531 C 7.683594 9.144531 7.152344 9.679688 7.152344 10.328125 C 7.152344 10.980469 7.683594 11.511719 8.335938 11.511719 C 8.988281 11.511719 9.519531 10.980469 9.519531 10.328125 C 9.519531 9.679688 8.988281 9.144531 8.335938 9.144531 Z M 8.335938 9.671875 C 8.703125 9.671875 8.996094 9.960938 8.996094 10.328125 C 8.996094 10.695312 8.703125 10.988281 8.335938 10.988281 C 7.96875 10.988281 7.679688 10.695312 7.679688 10.328125 C 7.679688 9.960938 7.96875 9.671875 8.335938 9.671875 Z M 8.335938 9.671875 "/>
</g>
</svg>
