<?xml version="1.0" encoding="UTF-8"?>
<svg xmlns="http://www.w3.org/2000/svg" xmlns:xlink="http://www.w3.org/1999/xlink" width="24px" height="24px" viewBox="0 0 24 24" version="1.1">
<g id="surface1">
<path style=" stroke:none;fill-rule:nonzero;fill:rgb(0%,0%,0%);fill-opacity:1;" d="M 9.910156 5.257812 C 9.910156 5.703125 9.910156 6.144531 9.910156 6.589844 C 9.53125 6.695312 9.1875 6.847656 8.859375 7.03125 L 7.902344 6.085938 L 6.117188 7.882812 L 7.074219 8.824219 C 6.886719 9.15625 6.746094 9.507812 6.644531 9.871094 L 5.292969 9.875 L 5.292969 12.40625 L 6.65625 12.398438 C 6.78125 12.894531 7.054688 13.339844 7.324219 13.738281 L 7.324219 11.558594 L 6.132812 11.5625 L 6.132812 10.714844 L 7.320312 10.710938 L 7.386719 10.375 C 7.484375 9.878906 7.675781 9.410156 7.953125 8.988281 L 8.144531 8.703125 L 7.308594 7.875 L 7.910156 7.273438 L 8.746094 8.097656 L 9.03125 7.910156 C 9.464844 7.621094 9.941406 7.429688 10.417969 7.328125 L 10.75 7.257812 L 10.75 6.097656 L 11.613281 6.097656 L 11.605469 7.253906 L 13.871094 7.253906 C 13.660156 7 12.777344 6.667969 12.449219 6.578125 L 12.457031 5.257812 C 11.515625 5.257812 10.777344 5.257812 9.910156 5.257812 Z M 12.300781 7.679688 L 12.300781 9.011719 C 11.921875 9.117188 11.578125 9.265625 11.25 9.449219 L 10.296875 8.507812 L 8.511719 10.300781 L 9.464844 11.246094 C 9.28125 11.574219 9.136719 11.925781 9.035156 12.292969 L 7.683594 12.292969 L 7.683594 14.824219 L 9.050781 14.820312 C 9.15625 15.195312 9.308594 15.535156 9.488281 15.859375 L 8.511719 16.835938 L 10.316406 18.609375 L 11.292969 17.640625 C 11.625 17.824219 11.980469 17.96875 12.347656 18.070312 L 12.347656 19.445312 C 13.21875 19.453125 14.140625 19.449219 14.886719 19.449219 L 14.886719 18.054688 C 15.265625 17.949219 15.609375 17.796875 15.9375 17.617188 L 16.910156 18.574219 L 18.699219 16.78125 L 17.722656 15.820312 C 17.90625 15.488281 18.050781 15.136719 18.152344 14.769531 L 19.476562 14.761719 L 19.476562 12.234375 L 18.136719 12.246094 C 18.03125 11.867188 17.882812 11.527344 17.699219 11.203125 L 18.621094 10.273438 L 16.816406 8.496094 L 15.894531 9.425781 C 15.5625 9.242188 15.207031 9.097656 14.84375 8.996094 L 14.847656 7.679688 Z M 13.140625 8.519531 L 14.003906 8.519531 L 13.996094 9.671875 L 14.339844 9.742188 C 14.835938 9.835938 15.308594 10.03125 15.730469 10.304688 L 16.015625 10.492188 L 16.824219 9.683594 L 17.429688 10.28125 L 16.625 11.089844 L 16.816406 11.378906 C 17.101562 11.808594 17.292969 12.273438 17.398438 12.753906 L 17.46875 13.089844 L 18.636719 13.082031 L 18.636719 13.929688 L 17.476562 13.933594 L 17.410156 14.273438 C 17.3125 14.765625 17.117188 15.234375 16.839844 15.65625 L 16.652344 15.945312 L 17.507812 16.785156 L 16.90625 17.390625 L 16.050781 16.546875 L 15.765625 16.734375 C 15.332031 17.019531 14.859375 17.21875 14.382812 17.316406 L 14.042969 17.382812 L 14.042969 18.609375 C 13.8125 18.609375 13.5625 18.609375 13.1875 18.609375 L 13.1875 17.390625 L 12.847656 17.324219 C 12.351562 17.226562 11.878906 17.035156 11.457031 16.761719 L 11.171875 16.574219 L 10.3125 17.425781 L 9.707031 16.832031 L 10.566406 15.972656 L 10.371094 15.6875 C 10.085938 15.257812 9.894531 14.789062 9.789062 14.3125 L 9.71875 13.976562 L 8.523438 13.980469 L 8.523438 13.132812 L 9.710938 13.132812 L 9.777344 12.792969 C 9.875 12.300781 10.070312 11.832031 10.347656 11.410156 L 10.535156 11.121094 L 9.699219 10.296875 L 10.300781 9.691406 L 11.136719 10.519531 L 11.421875 10.328125 C 11.859375 10.042969 12.320312 9.855469 12.808594 9.75 L 13.144531 9.679688 Z M 13.585938 11.605469 C 12.546875 11.605469 11.695312 12.457031 11.695312 13.496094 C 11.695312 14.535156 12.546875 15.386719 13.585938 15.386719 C 14.625 15.386719 15.480469 14.535156 15.480469 13.496094 C 15.480469 12.457031 14.625 11.605469 13.585938 11.605469 Z M 13.585938 12.445312 C 14.171875 12.445312 14.636719 12.910156 14.636719 13.496094 C 14.636719 14.082031 14.171875 14.546875 13.585938 14.546875 C 13 14.546875 12.535156 14.082031 12.535156 13.496094 C 12.535156 12.910156 13 12.445312 13.585938 12.445312 Z M 13.585938 12.445312 "/>
</g>
</svg>
