<svg xmlns="http://www.w3.org/2000/svg" width="16" height="16" viewBox="0 0 16 16" fill="none">
  <!-- Copilot-style icon: two-lens visor/glasses shape -->
  <path d="M8 1C5.5 1 3.5 2.5 2.5 4C1.5 5.5 1 7 1 8.5C1 10 1.5 11.5 3 12.5C4 13.2 5.5 13.5 6.5 13.5C7 13.5 7.5 13.3 8 13C8.5 13.3 9 13.5 9.5 13.5C10.5 13.5 12 13.2 13 12.5C14.5 11.5 15 10 15 8.5C15 7 14.5 5.5 13.5 4C12.5 2.5 10.5 1 8 1Z" fill="#6E40C9" opacity="0.2"/>
  <path d="M5.5 6C4.67 6 4 6.67 4 7.5V9C4 9.83 4.67 10.5 5.5 10.5C6.33 10.5 7 9.83 7 9V7.5C7 6.67 6.33 6 5.5 6Z" fill="#6E40C9"/>
  <path d="M10.5 6C9.67 6 9 6.67 9 7.5V9C9 9.83 9.67 10.5 10.5 10.5C11.33 10.5 12 9.83 12 9V7.5C12 6.67 11.33 6 10.5 6Z" fill="#6E40C9"/>
  <path d="M3.5 5C4.5 3.5 6 2.5 8 2.5C10 2.5 11.5 3.5 12.5 5" stroke="#6E40C9" stroke-width="1.2" stroke-linecap="round" fill="none"/>
  <path d="M7 11.5C7.3 12 7.6 12.2 8 12.2C8.4 12.2 8.7 12 9 11.5" stroke="#6E40C9" stroke-width="0.8" stroke-linecap="round" fill="none"/>
</svg>

