<?xml version="1.0" encoding="UTF-8"?>
<svg xmlns="http://www.w3.org/2000/svg" xmlns:xlink="http://www.w3.org/1999/xlink" width="24px" height="24px" viewBox="0 0 24 24" version="1.1">
<g id="surface1">
<path style=" stroke:none;fill-rule:nonzero;fill:rgb(0%,0%,0%);fill-opacity:1;" d="M 11.894531 1.160156 C 7.023438 1.125 2.449219 4.816406 1.425781 9.578125 C 0.4375 13.757812 2.207031 18.421875 5.753906 20.855469 C 9.195312 23.324219 14.101562 23.515625 17.679688 21.226562 C 21.28125 19.023438 23.402344 14.617188 22.730469 10.429688 C 22.113281 6.085938 18.644531 2.308594 14.335938 1.417969 C 13.535156 1.238281 12.714844 1.15625 11.894531 1.160156 Z M 12.152344 4.558594 C 15.734375 4.546875 19.023438 7.507812 19.390625 11.074219 C 19.855469 14.480469 17.65625 18.046875 14.355469 19.070312 C 11.132812 20.167969 7.246094 18.765625 5.566406 15.777344 C 3.707031 12.675781 4.496094 8.253906 7.441406 6.101562 C 8.777344 5.070312 10.46875 4.519531 12.152344 4.558594 Z M 12.152344 4.558594 "/>
</g>
</svg>
