<?xml version="1.0" encoding="UTF-8"?>
<svg xmlns="http://www.w3.org/2000/svg" xmlns:xlink="http://www.w3.org/1999/xlink" width="24px" height="24px" viewBox="0 0 24 15" version="1.1">
<g _id="surface1">
<path style=" stroke:none;fill-rule:nonzero;fill:rgb(0%,0%,0%);fill-opacity:1;" d="M 0.734375 0.046875 C 0.511719 0.113281 0.257812 0.308594 0.136719 0.511719 L 0.0234375 0.703125 L 0.0078125 7.433594 C -0.00390625 14.867188 -0.0234375 14.359375 0.292969 14.707031 C 0.582031 15.027344 -0.40625 15.003906 12.074219 14.992188 L 23.324219 14.976562 L 23.519531 14.855469 C 23.625 14.785156 23.773438 14.632812 23.84375 14.515625 L 23.976562 14.296875 L 23.992188 7.601562 C 24 2.765625 23.984375 0.847656 23.949219 0.710938 C 23.878906 0.460938 23.523438 0.117188 23.269531 0.0507812 C 23.039062 -0.0078125 0.945312 -0.0117188 0.734375 0.046875 Z M 23.171875 0.542969 C 23.238281 0.566406 23.335938 0.652344 23.386719 0.734375 C 23.480469 0.882812 23.480469 0.964844 23.480469 7.492188 C 23.480469 14.652344 23.496094 14.257812 23.238281 14.429688 C 23.144531 14.492188 22.007812 14.5 11.992188 14.5 L 0.847656 14.5 L 0.695312 14.371094 L 0.542969 14.238281 L 0.527344 7.558594 C 0.519531 0.941406 0.519531 0.882812 0.613281 0.734375 C 0.664062 0.652344 0.753906 0.566406 0.8125 0.542969 C 0.960938 0.488281 23.015625 0.484375 23.171875 0.542969 Z M 23.171875 0.542969 "/>
<path style=" stroke:none;fill-rule:nonzero;fill:rgb(0%,0%,0%);fill-opacity:1;" d="M 7.515625 2.988281 C 7.285156 3.03125 7.117188 3.152344 7.003906 3.351562 C 6.921875 3.492188 6.917969 3.597656 6.925781 4.238281 C 6.941406 4.914062 6.949219 4.972656 7.050781 5.113281 C 7.25 5.382812 7.375 5.414062 8.1875 5.414062 C 9.003906 5.414062 9.125 5.382812 9.328125 5.113281 C 9.429688 4.972656 9.433594 4.925781 9.433594 4.191406 C 9.433594 3.457031 9.429688 3.414062 9.328125 3.273438 C 9.140625 3.023438 8.988281 2.976562 8.304688 2.964844 C 7.972656 2.953125 7.613281 2.96875 7.515625 2.988281 Z M 9.0625 3.328125 L 9.222656 3.480469 L 9.222656 4.179688 C 9.222656 5.171875 9.179688 5.210938 8.1875 5.210938 C 7.195312 5.210938 7.152344 5.171875 7.152344 4.179688 L 7.152344 3.480469 L 7.3125 3.328125 L 7.472656 3.171875 L 8.902344 3.171875 Z M 9.0625 3.328125 "/>
<path style=" stroke:none;fill-rule:nonzero;fill:rgb(0%,0%,0%);fill-opacity:1;" d="M 2.730469 3.660156 C 2.574219 3.8125 2.507812 4.152344 2.558594 4.550781 C 2.613281 4.941406 2.824219 5.074219 3.363281 5.074219 C 4.015625 5.074219 4.140625 4.945312 4.140625 4.277344 C 4.140625 3.828125 4.136719 3.8125 4.003906 3.675781 C 3.867188 3.535156 3.867188 3.535156 3.363281 3.535156 C 2.875 3.535156 2.859375 3.539062 2.730469 3.660156 Z M 3.878906 3.859375 C 3.929688 3.933594 3.953125 4.070312 3.953125 4.304688 C 3.953125 4.792969 3.890625 4.847656 3.363281 4.847656 C 2.828125 4.847656 2.777344 4.804688 2.777344 4.3125 C 2.777344 3.792969 2.808594 3.761719 3.363281 3.761719 C 3.769531 3.761719 3.8125 3.769531 3.878906 3.859375 Z M 3.878906 3.859375 "/>
<path style=" stroke:none;fill-rule:nonzero;fill:rgb(0%,0%,0%);fill-opacity:1;" d="M 5.742188 3.921875 L 5.742188 4.074219 L 5.402344 4.085938 C 5.097656 4.101562 5.058594 4.109375 5.058594 4.191406 C 5.058594 4.273438 5.097656 4.28125 5.402344 4.296875 L 5.742188 4.308594 L 5.742188 4.488281 C 5.742188 4.582031 5.765625 4.675781 5.792969 4.695312 C 5.84375 4.726562 6.253906 4.320312 6.257812 4.234375 C 6.257812 4.15625 5.882812 3.761719 5.808594 3.761719 C 5.765625 3.761719 5.742188 3.8125 5.742188 3.921875 Z M 5.742188 3.921875 "/>
</g>
</svg>
