<?xml version="1.0" encoding="UTF-8"?>
<svg xmlns="http://www.w3.org/2000/svg" xmlns:xlink="http://www.w3.org/1999/xlink" width="24px" height="24px" viewBox="0 0 24 24" version="1.1">
<g _id="surface1">
<path style=" stroke:none;fill-rule:nonzero;fill:rgb(0%,0%,0%);fill-opacity:1;" d="M 9.113281 4.535156 L 9.015625 4.59375 L 8.980469 4.613281 C 7.578125 5.445312 6.617188 6.207031 5.980469 6.949219 C 5.339844 7.695312 5.03125 8.445312 5.023438 9.167969 C 5.007812 10.605469 6.066406 11.683594 7.007812 12.648438 C 7.949219 13.613281 8.789062 14.519531 8.867188 15.273438 C 8.910156 15.65625 8.816406 16.039062 8.398438 16.566406 C 7.984375 17.09375 7.226562 17.722656 6.019531 18.425781 L 4.238281 19.464844 L 15.242188 19.464844 L 15.371094 19.386719 C 16.652344 18.640625 17.511719 17.953125 18.0625 17.261719 C 18.613281 16.566406 18.835938 15.839844 18.765625 15.15625 C 18.625 13.804688 17.523438 12.816406 16.59375 11.871094 C 15.667969 10.917969 14.917969 10.023438 14.925781 9.179688 C 14.933594 8.753906 15.097656 8.28125 15.613281 7.675781 C 16.132812 7.070312 17.003906 6.363281 18.339844 5.574219 L 20.089844 4.535156 Z M 9.421875 5.652344 L 16.199219 5.652344 C 15.601562 6.097656 15.128906 6.527344 14.765625 6.949219 C 14.128906 7.695312 13.820312 8.445312 13.8125 9.167969 C 13.796875 10.605469 14.855469 11.683594 15.796875 12.648438 C 16.738281 13.613281 17.578125 14.519531 17.65625 15.273438 C 17.695312 15.65625 17.605469 16.039062 17.1875 16.566406 C 16.789062 17.074219 16.066406 17.675781 14.933594 18.347656 L 8.140625 18.347656 C 8.613281 17.980469 8.988281 17.621094 9.273438 17.261719 C 9.824219 16.566406 10.046875 15.839844 9.976562 15.15625 C 9.835938 13.804688 8.734375 12.816406 7.808594 11.871094 C 6.878906 10.917969 6.128906 10.023438 6.140625 9.179688 C 6.144531 8.753906 6.308594 8.28125 6.824219 7.675781 C 7.324219 7.089844 8.160156 6.410156 9.421875 5.652344 Z M 7.835938 7.550781 L 7.835938 8.066406 L 13.132812 8.066406 L 13.132812 7.550781 Z M 7.640625 10.328125 L 7.640625 10.84375 L 13.117188 10.84375 L 13.117188 10.328125 Z M 10.121094 13.101562 L 10.121094 13.617188 L 15.425781 13.617188 L 15.425781 13.101562 Z M 10.878906 15.875 L 10.878906 16.390625 L 16.375 16.390625 L 16.375 15.875 Z M 10.878906 15.875 "/>
</g>
</svg>
