<?xml version="1.0" encoding="UTF-8"?>
<svg xmlns="http://www.w3.org/2000/svg" xmlns:xlink="http://www.w3.org/1999/xlink" width="24px" height="24px" viewBox="0 0 24 24" version="1.1">
<g _id="surface1">
<path style="fill-rule:nonzero;fill:rgb(100%,100%,100%);fill-opacity:1;stroke-width:119.999992;stroke-linecap:round;stroke-linejoin:miter;stroke:rgb(0%,0%,0%);stroke-opacity:1;stroke-miterlimit:4;" d="M 429.6875 -677.781047 L 1570.3125 -677.781047 C 1752.278646 -677.781047 1900.065104 -530.64563 1900.065104 -349.005005 L 1900.065104 453.72937 C 1900.065104 635.369995 1752.278646 782.505412 1570.3125 782.505412 L 429.6875 782.505412 C 247.721354 782.505412 99.934896 635.369995 99.934896 453.72937 L 99.934896 -349.005005 C 99.934896 -530.64563 247.721354 -677.781047 429.6875 -677.781047 Z M 429.6875 -677.781047 " transform="matrix(0.012,0,0,0.012,0,11.371654)"/>
<path style="fill-rule:nonzero;fill:rgb(0%,0%,0%);fill-opacity:1;stroke-width:70;stroke-linecap:round;stroke-linejoin:miter;stroke:rgb(0%,0%,0%);stroke-opacity:1;stroke-miterlimit:4;" d="M 775.143176 435.629889 L 1463.789955 435.629889 C 1367.902429 495.486951 1301.071729 550.113784 1256.905353 601.834935 C 1208.089885 659.367451 1186.587834 713.413147 1186.006697 764.553161 C 1184.844424 866.252053 1263.297855 949.354575 1341.751285 1029.551416 C 1419.623579 1109.748256 1497.495874 1187.039413 1506.212921 1268.979663 C 1510.280877 1310.240356 1498.658147 1353.244459 1459.722 1402.641063 C 1421.366989 1450.875395 1355.698562 1504.921091 1254.580807 1564.197016 L 566.515164 1564.197016 C 650.77996 1511.313593 708.893612 1463.079262 745.505213 1416.58834 C 786.765906 1364.286053 801.294319 1313.727175 796.645227 1266.655117 C 786.765906 1171.929864 703.663383 1093.476433 625.791089 1013.279593 C 547.918795 933.663889 475.27673 854.048186 476.439003 764.553161 C 477.02014 719.805649 495.616508 671.571318 542.10743 616.944484 C 588.598352 562.317651 663.564963 502.460589 775.143176 435.629889 Z M 768.750674 412.965565 L 766.426128 414.708975 C 651.361096 482.701948 574.069939 544.302419 524.673334 601.834935 C 475.27673 659.367451 454.355815 713.413147 453.774679 764.553161 C 452.612406 866.252053 531.065836 949.354575 608.93813 1029.551416 C 687.391561 1109.748256 765.263855 1187.039413 773.980903 1268.979663 C 778.048858 1310.240356 766.426128 1353.244459 727.489981 1402.641063 C 688.553834 1451.456531 622.30427 1505.502228 519.443106 1565.35929 L 482.831505 1586.861341 L 1260.392172 1586.861341 L 1263.297855 1585.699068 C 1367.902429 1524.679733 1435.895402 1468.890627 1477.737232 1416.58834 C 1519.579061 1364.286053 1534.107474 1313.727175 1528.877246 1266.655117 C 1518.997925 1171.929864 1435.895402 1093.476433 1358.023108 1013.279593 C 1280.150814 933.663889 1208.089885 854.048186 1208.671022 764.553161 C 1209.252158 719.805649 1227.848527 671.571318 1274.339449 616.944484 C 1321.411507 562.317651 1396.959255 501.298316 1510.280877 434.467616 L 1546.311341 412.965565 Z M 768.750674 412.965565 " transform="matrix(0.00672174,0,0,0.00672174,2.20375,3.634308)"/>
<path style="fill-rule:nonzero;fill:rgb(0%,0%,0%);fill-opacity:1;stroke-width:20;stroke-linecap:round;stroke-linejoin:miter;stroke:rgb(0%,0%,0%);stroke-opacity:1;stroke-miterlimit:4;" d="M 916.940487 1332.90468 L 916.940487 1355.569005 L 1354.536289 1355.569005 L 1354.536289 1332.90468 Z M 853.596606 1101.612344 L 853.596606 1124.857805 L 1275.501722 1124.857805 L 1275.501722 1101.612344 Z M 646.712004 870.320008 L 646.712004 893.565469 L 1083.145533 893.565469 L 1083.145533 870.320008 Z M 662.983827 639.608809 L 662.983827 662.273133 L 1084.307806 662.273133 L 1084.307806 639.608809 Z M 662.983827 639.608809 " transform="matrix(0.00672174,0,0,0.00672174,2.20375,3.634308)"/>
</g>
</svg>
