<?xml version="1.0" encoding="UTF-8"?>
<svg xmlns="http://www.w3.org/2000/svg" xmlns:xlink="http://www.w3.org/1999/xlink" width="24px" height="24px" viewBox="0 0 24 24" version="1.1">
<g _id="surface1">
<path style=" stroke:none;fill-rule:nonzero;fill:rgb(0%,0%,0%);fill-opacity:1;" d="M 12 1.164062 C 11.773438 1.164062 11.546875 1.246094 11.378906 1.417969 L 1.417969 11.378906 C 1.082031 11.714844 1.082031 12.285156 1.417969 12.621094 L 11.378906 22.582031 C 11.714844 22.917969 12.285156 22.917969 12.621094 22.582031 L 22.582031 12.621094 C 22.917969 12.285156 22.917969 11.714844 22.582031 11.378906 L 12.621094 1.417969 C 12.453125 1.25 12.226562 1.164062 12 1.164062 Z M 12 2.640625 L 21.359375 12 L 12 21.359375 L 2.640625 12 Z M 8.503906 7.847656 C 8.503906 7.847656 8.390625 7.871094 8.390625 7.871094 C 8.390625 7.871094 8.296875 7.933594 8.296875 7.933594 L 7.9375 8.296875 C 7.9375 8.296875 7.871094 8.390625 7.871094 8.394531 C 7.871094 8.394531 7.851562 8.503906 7.851562 8.503906 C 7.851562 8.503906 7.871094 8.613281 7.871094 8.613281 C 7.871094 8.613281 7.933594 8.710938 7.933594 8.710938 L 11.222656 12 L 7.9375 15.289062 C 7.9375 15.289062 7.871094 15.386719 7.871094 15.386719 C 7.871094 15.386719 7.851562 15.496094 7.851562 15.496094 C 7.851562 15.496094 7.871094 15.605469 7.871094 15.605469 C 7.871094 15.605469 7.933594 15.703125 7.933594 15.703125 L 8.292969 16.0625 C 8.292969 16.0625 8.394531 16.128906 8.394531 16.128906 C 8.394531 16.128906 8.503906 16.148438 8.503906 16.148438 C 8.503906 16.148438 8.613281 16.128906 8.613281 16.128906 C 8.613281 16.128906 8.710938 16.0625 8.710938 16.0625 L 12 12.777344 L 15.289062 16.066406 C 15.289062 16.066406 15.386719 16.128906 15.386719 16.128906 C 15.386719 16.128906 15.496094 16.152344 15.496094 16.152344 C 15.496094 16.152344 15.605469 16.128906 15.605469 16.128906 C 15.605469 16.128906 15.703125 16.066406 15.703125 16.066406 L 16.0625 15.703125 C 16.0625 15.703125 16.128906 15.609375 16.128906 15.609375 C 16.128906 15.609375 16.148438 15.496094 16.148438 15.496094 C 16.148438 15.496094 16.128906 15.386719 16.128906 15.386719 C 16.128906 15.386719 16.0625 15.289062 16.0625 15.289062 L 12.777344 12 L 16.0625 8.710938 C 16.0625 8.710938 16.128906 8.617188 16.128906 8.617188 C 16.128906 8.617188 16.148438 8.503906 16.148438 8.503906 C 16.148438 8.503906 16.128906 8.394531 16.128906 8.394531 C 16.128906 8.394531 16.0625 8.296875 16.0625 8.296875 L 15.703125 7.933594 C 15.703125 7.933594 15.605469 7.871094 15.605469 7.871094 C 15.605469 7.871094 15.496094 7.847656 15.496094 7.847656 C 15.496094 7.847656 15.382812 7.871094 15.382812 7.871094 C 15.382812 7.871094 15.289062 7.933594 15.289062 7.933594 L 12 11.222656 L 8.710938 7.933594 C 8.710938 7.933594 8.613281 7.871094 8.613281 7.871094 C 8.613281 7.871094 8.503906 7.847656 8.503906 7.847656 Z M 8.503906 7.847656 "/>
</g>
</svg>
