<?xml version="1.0" encoding="UTF-8"?>
<svg xmlns="http://www.w3.org/2000/svg" xmlns:xlink="http://www.w3.org/1999/xlink" width="24px" height="24px" viewBox="0 0 24 15" version="1.1">
<g id="surface1">
<path style=" stroke:none;fill-rule:nonzero;fill:rgb(0%,0%,0%);fill-opacity:1;" d="M 0.734375 0.046875 C 0.511719 0.113281 0.257812 0.308594 0.136719 0.511719 L 0.0234375 0.703125 L 0.0078125 7.433594 C -0.00390625 14.867188 -0.0234375 14.359375 0.292969 14.707031 C 0.582031 15.027344 -0.40625 15.003906 12.074219 14.992188 L 23.324219 14.976562 L 23.519531 14.855469 C 23.625 14.785156 23.773438 14.632812 23.84375 14.515625 L 23.976562 14.296875 L 23.992188 7.601562 C 24 2.765625 23.984375 0.847656 23.949219 0.710938 C 23.878906 0.460938 23.523438 0.117188 23.269531 0.0507812 C 23.039062 -0.0078125 0.945312 -0.0117188 0.734375 0.046875 Z M 23.171875 0.542969 C 23.238281 0.566406 23.335938 0.652344 23.386719 0.734375 C 23.480469 0.882812 23.480469 0.964844 23.480469 7.492188 C 23.480469 14.652344 23.496094 14.257812 23.238281 14.429688 C 23.144531 14.492188 22.007812 14.5 11.992188 14.5 L 0.847656 14.5 L 0.695312 14.371094 L 0.542969 14.238281 L 0.527344 7.558594 C 0.519531 0.941406 0.519531 0.882812 0.613281 0.734375 C 0.664062 0.652344 0.753906 0.566406 0.8125 0.542969 C 0.960938 0.488281 23.015625 0.484375 23.171875 0.542969 Z M 23.171875 0.542969 "/>
<path style=" stroke:none;fill-rule:nonzero;fill:rgb(0%,0%,0%);fill-opacity:1;" d="M 2.582031 3 C 2.582031 3.03125 2.578125 3.246094 2.578125 3.472656 L 2.578125 3.886719 L 2.78125 4.070312 C 2.894531 4.167969 3.121094 4.355469 3.28125 4.488281 L 3.578125 4.71875 L 3.585938 5.765625 L 3.601562 6.808594 L 4.132812 6.546875 L 4.660156 6.289062 L 4.660156 4.714844 L 5.199219 4.300781 L 5.746094 3.886719 L 5.730469 3.425781 L 5.71875 2.96875 L 4.15625 2.953125 C 2.917969 2.945312 2.589844 2.953125 2.582031 3 Z M 5.507812 3.488281 L 5.507812 3.808594 L 4.964844 4.21875 L 4.421875 4.632812 L 4.421875 6.164062 L 4.09375 6.320312 L 3.765625 6.480469 L 3.765625 4.601562 L 3.269531 4.199219 L 2.777344 3.800781 L 2.777344 3.171875 L 5.507812 3.171875 Z M 5.507812 3.488281 "/>
</g>
</svg>
