<svg width="28" height="19" viewBox="0 0 28 19" fill="none" xmlns="http://www.w3.org/2000/svg">
<path d="M2.52734 5.43652L2.47363 5.39062H2.47266C2.47217 5.39022 2.47162 5.38944 2.4707 5.38867C2.4686 5.38691 2.46502 5.38428 2.46094 5.38086C2.45276 5.37401 2.4411 5.36344 2.42578 5.35059C2.395 5.32476 2.35025 5.28811 2.29688 5.24316C2.18996 5.15312 2.04557 5.03151 1.89746 4.90527C1.74938 4.77906 1.59776 4.64824 1.47461 4.54004C1.34775 4.42857 1.26016 4.34803 1.2334 4.31836C1.20061 4.28201 1.17123 4.26052 1.15234 4.24609C1.15217 4.24407 1.15251 4.2417 1.15234 4.23926C1.15111 4.22112 1.15077 4.19604 1.15039 4.16016V3.15332C1.16164 3.15328 1.17486 3.15307 1.19043 3.15332C1.23702 3.15407 1.30143 3.15625 1.37695 3.15625H4.9209C4.99808 3.15625 5.06682 3.15317 5.12207 3.15137C5.16782 3.14987 5.20156 3.15038 5.22754 3.15137V3.82227C5.22754 3.97399 5.22677 4.07487 5.22363 4.14453C5.22093 4.20446 5.21446 4.23045 5.21191 4.24121C5.19519 4.25441 5.15927 4.28151 5.11816 4.32617C5.09337 4.35312 5.00219 4.43079 4.86523 4.54199C4.73321 4.64919 4.56933 4.77893 4.40918 4.9043C4.24918 5.02955 4.0934 5.15083 3.97754 5.24023C3.91973 5.28485 3.87126 5.32104 3.83789 5.34668C3.82123 5.35948 3.80869 5.37014 3.7998 5.37695C3.79535 5.38037 3.79135 5.38301 3.78906 5.38477C3.78812 5.38548 3.78762 5.38633 3.78711 5.38672H3.78613L3.72754 5.43262V7.65039H3.72656L3.72559 7.65137H3.72461V7.65234H3.72363L3.72266 7.65332H3.72168L3.7207 7.6543L3.71875 7.65527H3.71777L3.7168 7.65625H3.71582L3.71484 7.65723H3.71387L3.71289 7.6582H3.71191L3.71094 7.65918H3.70996L3.70898 7.66016H3.70801L3.70703 7.66113H3.70605L3.7041 7.66309H3.70312L3.70215 7.66406H3.70117L3.7002 7.66504H3.69922L3.69727 7.66699H3.69629L3.69434 7.66797H3.69336L3.69238 7.66895H3.69141L3.68945 7.6709H3.68848L3.6875 7.67188L3.68555 7.67285H3.68457L3.68359 7.67383H3.68262L3.68164 7.6748L3.67969 7.67578H3.67871L3.67676 7.67773H3.67578L3.67383 7.67871L3.67285 7.67969H3.67188L3.6709 7.68066L3.66895 7.68164H3.66797L3.66602 7.68359H3.66406L3.66211 7.68555H3.66016L3.6582 7.6875L3.65625 7.68848H3.65527L3.6543 7.68945L3.65234 7.69043H3.65137L3.64941 7.69141L3.64746 7.69336H3.64551L3.64453 7.69434L3.64258 7.69531L3.6416 7.69629H3.64062L3.63867 7.69727L3.6377 7.69824L3.63574 7.69922L3.63477 7.7002H3.63281L3.63184 7.70117L3.62988 7.70215L3.62891 7.70312H3.62695L3.62598 7.7041L3.62402 7.70508L3.62305 7.70605L3.62109 7.70703L3.62012 7.70801H3.61816L3.61621 7.70898L3.61523 7.70996L3.61328 7.71094L3.6123 7.71191L3.61035 7.71289H3.6084L3.60742 7.71387L3.60547 7.71484L3.60449 7.71582L3.60059 7.71777L3.59961 7.71875L3.5957 7.7207H3.59473L3.58887 7.72363L3.58789 7.72461L3.58203 7.72754L3.58105 7.72852L3.5752 7.73145L3.57422 7.73242L3.57227 7.7334H3.57031L3.56445 7.73633L3.56348 7.7373L3.5459 7.74609L3.54492 7.74805L3.52539 7.75781L3.52246 7.75879L3.51855 7.76074L3.5166 7.7627L3.50488 7.76855L3.50195 7.76953L3.5 7.77148L3.49414 7.77441L3.49121 7.77539L3.48926 7.77637L3.4873 7.77832L3.4834 7.78027L3.48047 7.78125L3.47852 7.78223L3.47656 7.78418L3.47461 7.78516L3.47168 7.78613L3.46777 7.78809L3.46484 7.79004L3.46094 7.79199L3.45801 7.79297L3.45605 7.79492L3.4541 7.7959L3.45117 7.79688L3.44922 7.79785L3.44629 7.7998L3.44238 7.80176L3.43945 7.80371L3.4375 7.80469L3.43457 7.80566L3.43262 7.80762L3.42969 7.80859L3.42773 7.80957L3.4248 7.81055L3.42285 7.8125L3.41992 7.81348L3.41797 7.81543L3.41504 7.81641L3.41309 7.81738L3.41016 7.81934L3.40723 7.82031L3.40527 7.82129L3.40234 7.82324L3.40039 7.82422L3.39746 7.8252L3.39453 7.82715L3.39258 7.82812L3.38965 7.83008L3.38672 7.83105L3.38477 7.83301L3.37891 7.83496L3.37695 7.83691L3.37402 7.83789C3.37314 7.83836 3.37198 7.83937 3.37109 7.83984L3.36816 7.84082L3.36621 7.84277L3.36328 7.84375C3.36238 7.84423 3.36126 7.84522 3.36035 7.8457L3.35742 7.84668L3.35547 7.84863L3.35254 7.84961C3.35162 7.8501 3.35053 7.85107 3.34961 7.85156L3.34668 7.85254C3.34577 7.85302 3.34466 7.85401 3.34375 7.85449L3.34082 7.85547L3.33887 7.85742L3.33594 7.8584C3.33501 7.85889 3.33394 7.85986 3.33301 7.86035C3.33213 7.86082 3.33096 7.86086 3.33008 7.86133C3.32913 7.86183 3.3281 7.86278 3.32715 7.86328C3.32625 7.86376 3.32512 7.86378 3.32422 7.86426C3.32326 7.86476 3.32225 7.8657 3.32129 7.86621C3.32039 7.86669 3.31926 7.86671 3.31836 7.86719L3.3125 7.87109L3.30957 7.87207C3.30863 7.87257 3.30758 7.87352 3.30664 7.87402C2.90769 8.08596 2.66865 8.20339 2.52734 8.26953V5.43652Z" stroke="black" stroke-width="0.3"/>
</svg>
