<?xml version="1.0" encoding="UTF-8"?>
<svg xmlns="http://www.w3.org/2000/svg" xmlns:xlink="http://www.w3.org/1999/xlink" width="24px" height="24px" viewBox="0 0 24 24" version="1.1">
<g _id="surface2">
<path style="fill:none;stroke-width:67.5;stroke-linecap:butt;stroke-linejoin:miter;stroke:rgb(0%,0%,0%);stroke-opacity:1;stroke-miterlimit:4;" d="M 806.640625 1750.325521 L 1428.710938 1750.325521 C 1450.520833 1680.013021 1490.559896 1407.877604 1574.869792 1189.453125 C 1684.570312 904.947917 1797.526042 655.924479 1654.296875 631.184896 C 1540.039062 609.049479 1489.908854 853.515625 1415.039062 1009.765625 C 1415.039062 1009.765625 1414.0625 857.096354 1413.411458 690.755208 C 1412.434896 513.997396 1434.244792 302.083333 1342.122396 308.919271 C 1247.070312 302.083333 1239.583333 485.677083 1214.518229 622.721354 C 1187.5 769.53125 1163.085938 921.549479 1163.085938 921.549479 C 1163.085938 921.549479 1137.369792 791.666667 1119.140625 611.653646 C 1102.864583 448.567708 1095.703125 229.166667 999.348958 233.398438 C 885.091146 229.166667 907.552083 445.638021 909.830729 619.791667 C 911.458333 756.184896 906.575521 920.572917 906.575521 920.572917 C 906.575521 920.572917 845.703125 771.158854 814.127604 687.825521 C 751.953125 527.34375 697.591146 366.861979 583.333333 417.96875 C 482.421875 465.494792 573.893229 643.229167 623.372396 825.520833 C 666.666667 985.351562 709.960938 1158.203125 709.960938 1158.203125 C 709.960938 1158.203125 416.992188 790.690104 280.598958 911.783854 C 159.505208 1024.739583 347.330729 1131.835938 525.716146 1346.028646 C 626.953125 1467.447917 734.375 1656.25 806.640625 1750.325521 Z M 806.640625 1750.325521 " transform="matrix(0.012,0,0,0.012,0,0)"/>
</g>
</svg>
