<?xml version="1.0" encoding="UTF-8"?>
<svg xmlns="http://www.w3.org/2000/svg" xmlns:xlink="http://www.w3.org/1999/xlink" width="24px" height="24px" viewBox="0 0 24 24" version="1.1">
<g _id="surface1">
<path style=" stroke:none;fill-rule:nonzero;fill:rgb(0%,0%,0%);fill-opacity:1;" d="M 12 1.164062 C 11.773438 1.164062 11.546875 1.246094 11.378906 1.417969 L 1.417969 11.378906 C 1.082031 11.714844 1.082031 12.285156 1.417969 12.621094 L 11.378906 22.582031 C 11.714844 22.917969 12.285156 22.917969 12.621094 22.582031 L 22.582031 12.621094 C 22.917969 12.285156 22.917969 11.714844 22.582031 11.378906 L 12.621094 1.417969 C 12.453125 1.25 12.226562 1.164062 12 1.164062 Z M 12 2.640625 L 21.359375 12 L 12 21.359375 L 2.640625 12 Z M 12 6.960938 C 9.21875 6.960938 6.960938 9.21875 6.960938 12 C 6.960938 14.78125 9.21875 17.039062 12 17.039062 C 14.78125 17.039062 17.039062 14.78125 17.039062 12 C 17.039062 9.21875 14.78125 6.960938 12 6.960938 Z M 12 7.519531 C 14.476562 7.519531 16.480469 9.523438 16.480469 12 C 16.480469 14.476562 14.476562 16.480469 12 16.480469 C 9.523438 16.480469 7.519531 14.476562 7.519531 12 C 7.519531 9.523438 9.523438 7.519531 12 7.519531 Z M 12 7.519531 "/>
</g>
</svg>
