<?xml version="1.0" encoding="UTF-8"?>
<svg xmlns="http://www.w3.org/2000/svg" xmlns:xlink="http://www.w3.org/1999/xlink" width="24px" height="24px" viewBox="0 0 24 24" version="1.1">
<g _id="surface1">
<path style="fill:none;stroke-width:205.238297;stroke-linecap:butt;stroke-linejoin:round;stroke:rgb(0%,0%,0%);stroke-opacity:1;stroke-miterlimit:4;" d="M 1305.013021 -248.744588 L 868.815104 -248.744588 " transform="matrix(0.012,0,0,0.012,0,11.371654)"/>
<path style="fill:none;stroke-width:80;stroke-linecap:butt;stroke-linejoin:miter;stroke:rgb(0%,0%,0%);stroke-opacity:1;stroke-miterlimit:4;" d="M 1566.731771 -251.348755 L 1851.888021 -251.348755 L 1851.888021 22.088745 " transform="matrix(0.012,0,0,0.012,0,11.371654)"/>
<path style="fill:none;stroke-width:80;stroke-linecap:butt;stroke-linejoin:miter;stroke:rgb(0%,0%,0%);stroke-opacity:1;stroke-miterlimit:4;" d="M 1851.888021 613.88562 L 1851.888021 887.32312 L 1573.893229 887.32312 " transform="matrix(0.012,0,0,0.012,0,11.371654)"/>
<path style="fill:none;stroke-width:80;stroke-linecap:butt;stroke-linejoin:miter;stroke:rgb(0%,0%,0%);stroke-opacity:1;stroke-miterlimit:4;" d="M 1851.236979 234.97937 L 1851.236979 387.974162 " transform="matrix(0.012,0,0,0.012,0,11.371654)"/>
<path style="fill:none;stroke-width:80;stroke-linecap:butt;stroke-linejoin:miter;stroke:rgb(0%,0%,0%);stroke-opacity:1;stroke-miterlimit:4;" d="M 711.263021 616.164266 L 711.263021 889.601766 L 989.257812 889.601766 " transform="matrix(0.012,0,0,0.012,0,11.371654)"/>
<path style="fill:none;stroke-width:80;stroke-linecap:butt;stroke-linejoin:miter;stroke:rgb(0%,0%,0%);stroke-opacity:1;stroke-miterlimit:4;" d="M 1198.893229 889.601766 L 1364.257812 889.601766 " transform="matrix(0.012,0,0,0.012,0,11.371654)"/>
<path style="fill:none;stroke-width:205.238297;stroke-linecap:butt;stroke-linejoin:round;stroke:rgb(0%,0%,0%);stroke-opacity:1;stroke-miterlimit:4;" d="M 708.333333 -842.820109 L 708.333333 -406.622192 " transform="matrix(0.012,0,0,0.012,0,11.371654)"/>
<path style="fill:none;stroke-width:205.238297;stroke-linecap:butt;stroke-linejoin:round;stroke:rgb(0%,0%,0%);stroke-opacity:1;stroke-miterlimit:4;" d="M 708.333333 -83.054484 L 708.333333 353.143433 " transform="matrix(0.012,0,0,0.012,0,11.371654)"/>
<path style="fill:none;stroke-width:205.238297;stroke-linecap:butt;stroke-linejoin:round;stroke:rgb(0%,0%,0%);stroke-opacity:1;stroke-miterlimit:4;" d="M 544.921875 -248.744588 L 109.049479 -248.744588 " transform="matrix(0.012,0,0,0.012,0,11.371654)"/>
</g>
</svg>
