<?xml version="1.0" encoding="UTF-8"?>
<svg xmlns="http://www.w3.org/2000/svg" xmlns:xlink="http://www.w3.org/1999/xlink" width="24px" height="24px" viewBox="0 0 24 24" version="1.1">
<g _id="surface1">
<path style=" stroke:none;fill-rule:nonzero;fill:rgb(0%,0%,0%);fill-opacity:1;" d="M 12 1.164062 C 11.773438 1.164062 11.546875 1.246094 11.378906 1.417969 L 1.417969 11.378906 C 1.082031 11.714844 1.082031 12.285156 1.417969 12.621094 L 11.378906 22.582031 C 11.714844 22.917969 12.285156 22.917969 12.621094 22.582031 L 22.582031 12.621094 C 22.917969 12.285156 22.917969 11.714844 22.582031 11.378906 L 12.621094 1.417969 C 12.453125 1.25 12.226562 1.164062 12 1.164062 Z M 12 2.640625 L 21.359375 12 L 12 21.359375 L 2.640625 12 Z M 11.777344 7.238281 L 11.777344 7.246094 C 11.777344 7.246094 11.679688 7.261719 11.679688 7.261719 C 11.679688 7.261719 11.601562 7.316406 11.601562 7.316406 C 11.601562 7.316406 11.542969 7.398438 11.542969 7.398438 C 11.542969 7.398438 11.523438 7.5 11.523438 7.5 L 11.523438 10.851562 L 9.148438 8.476562 L 9.152344 8.476562 C 9.148438 8.476562 9.066406 8.421875 9.066406 8.421875 C 9.066406 8.421875 8.972656 8.40625 8.972656 8.402344 C 8.96875 8.40625 8.875 8.421875 8.875 8.421875 C 8.875 8.421875 8.792969 8.476562 8.792969 8.476562 L 8.480469 8.789062 C 8.480469 8.789062 8.421875 8.875 8.421875 8.875 C 8.421875 8.875 8.40625 8.96875 8.40625 8.96875 C 8.40625 8.96875 8.421875 9.066406 8.421875 9.066406 C 8.421875 9.066406 8.476562 9.148438 8.476562 9.148438 L 10.851562 11.523438 L 7.492188 11.523438 C 7.492188 11.523438 7.394531 11.542969 7.394531 11.542969 C 7.394531 11.542969 7.316406 11.597656 7.316406 11.597656 C 7.316406 11.597656 7.257812 11.679688 7.257812 11.679688 C 7.257812 11.679688 7.242188 11.777344 7.242188 11.777344 L 7.242188 12.21875 C 7.242188 12.21875 7.257812 12.320312 7.261719 12.320312 C 7.261719 12.320312 7.316406 12.402344 7.316406 12.402344 C 7.316406 12.402344 7.394531 12.453125 7.394531 12.453125 C 7.394531 12.457031 7.496094 12.476562 7.496094 12.476562 L 10.851562 12.476562 L 8.480469 14.847656 C 8.480469 14.847656 8.421875 14.929688 8.421875 14.929688 C 8.421875 14.929688 8.402344 15.027344 8.402344 15.027344 C 8.402344 15.027344 8.421875 15.121094 8.421875 15.121094 C 8.421875 15.121094 8.476562 15.207031 8.476562 15.207031 L 8.789062 15.519531 C 8.789062 15.519531 8.875 15.574219 8.875 15.574219 C 8.875 15.574219 8.96875 15.59375 8.96875 15.59375 C 8.96875 15.59375 9.066406 15.574219 9.066406 15.574219 C 9.066406 15.574219 9.148438 15.519531 9.148438 15.519531 L 11.523438 13.144531 L 11.523438 16.503906 C 11.523438 16.503906 11.542969 16.605469 11.542969 16.605469 C 11.542969 16.605469 11.597656 16.683594 11.597656 16.683594 C 11.597656 16.683594 11.679688 16.738281 11.679688 16.738281 C 11.679688 16.738281 11.777344 16.757812 11.777344 16.761719 L 12.21875 16.761719 C 12.21875 16.761719 12.320312 16.738281 12.320312 16.738281 C 12.320312 16.738281 12.398438 16.6875 12.398438 16.6875 C 12.398438 16.683594 12.457031 16.605469 12.457031 16.605469 C 12.457031 16.605469 12.476562 16.503906 12.476562 16.503906 L 12.476562 13.144531 L 14.847656 15.519531 C 14.847656 15.519531 14.933594 15.574219 14.933594 15.574219 C 14.933594 15.574219 15.027344 15.59375 15.027344 15.59375 C 15.027344 15.59375 15.125 15.574219 15.125 15.574219 C 15.125 15.574219 15.207031 15.519531 15.207031 15.519531 L 15.519531 15.207031 C 15.519531 15.207031 15.574219 15.121094 15.578125 15.121094 C 15.578125 15.121094 15.597656 15.023438 15.59375 15.023438 C 15.59375 15.023438 15.578125 14.929688 15.578125 14.929688 C 15.578125 14.929688 15.519531 14.84375 15.519531 14.84375 L 13.152344 12.476562 L 16.503906 12.476562 C 16.503906 12.476562 16.605469 12.457031 16.605469 12.457031 C 16.605469 12.457031 16.683594 12.402344 16.683594 12.402344 C 16.683594 12.402344 16.742188 12.320312 16.742188 12.320312 C 16.742188 12.320312 16.757812 12.222656 16.757812 12.222656 L 16.757812 11.78125 C 16.757812 11.78125 16.742188 11.683594 16.742188 11.679688 C 16.742188 11.679688 16.683594 11.597656 16.683594 11.597656 C 16.683594 11.597656 16.605469 11.542969 16.605469 11.542969 C 16.605469 11.542969 16.503906 11.523438 16.503906 11.523438 L 13.144531 11.523438 L 15.519531 9.144531 C 15.519531 9.144531 15.574219 9.0625 15.578125 9.0625 C 15.578125 9.0625 15.597656 8.964844 15.597656 8.964844 C 15.597656 8.964844 15.578125 8.871094 15.578125 8.871094 C 15.578125 8.871094 15.519531 8.785156 15.519531 8.785156 L 15.207031 8.472656 C 15.207031 8.472656 15.125 8.417969 15.125 8.417969 C 15.125 8.417969 15.03125 8.402344 15.03125 8.402344 C 15.03125 8.402344 14.933594 8.417969 14.933594 8.417969 C 14.933594 8.417969 14.851562 8.472656 14.851562 8.472656 L 12.476562 10.847656 L 12.476562 7.496094 C 12.476562 7.496094 12.457031 7.398438 12.457031 7.394531 C 12.457031 7.394531 12.402344 7.3125 12.402344 7.3125 C 12.398438 7.3125 12.320312 7.257812 12.320312 7.257812 C 12.320312 7.257812 12.21875 7.238281 12.21875 7.238281 Z M 8.972656 8.402344 Z M 8.972656 8.402344 "/>
</g>
</svg>
