<?xml version="1.0" encoding="UTF-8"?>
<svg xmlns="http://www.w3.org/2000/svg" xmlns:xlink="http://www.w3.org/1999/xlink" width="24px" height="24px" viewBox="0 0 24 24" version="1.1">
<g _id="surface1">
<path style=" stroke:none;fill-rule:nonzero;fill:rgb(0%,0%,0%);fill-opacity:1;" d="M 12 1.164062 C 11.773438 1.164062 11.546875 1.246094 11.378906 1.417969 L 1.417969 11.378906 C 1.082031 11.714844 1.082031 12.285156 1.417969 12.621094 L 11.378906 22.582031 C 11.714844 22.917969 12.285156 22.917969 12.621094 22.582031 L 22.582031 12.621094 C 22.917969 12.285156 22.917969 11.714844 22.582031 11.378906 L 12.621094 1.417969 C 12.453125 1.25 12.226562 1.164062 12 1.164062 Z M 12 2.640625 L 21.359375 12 L 12 21.359375 L 2.640625 12 Z M 11.742188 6.507812 C 11.742188 6.507812 11.628906 6.527344 11.628906 6.527344 C 11.628906 6.527344 11.539062 6.589844 11.539062 6.589844 C 11.539062 6.589844 11.472656 6.683594 11.472656 6.683594 C 11.472656 6.6875 11.453125 6.800781 11.453125 6.800781 L 11.453125 11.449219 L 6.796875 11.449219 C 6.796875 11.449219 6.6875 11.472656 6.683594 11.472656 C 6.683594 11.472656 6.59375 11.535156 6.59375 11.535156 C 6.59375 11.535156 6.527344 11.628906 6.527344 11.628906 C 6.527344 11.628906 6.507812 11.742188 6.507812 11.742188 L 6.507812 12.253906 C 6.507812 12.253906 6.527344 12.367188 6.527344 12.367188 C 6.527344 12.367188 6.59375 12.460938 6.59375 12.460938 C 6.59375 12.460938 6.6875 12.523438 6.6875 12.523438 C 6.6875 12.523438 6.800781 12.546875 6.800781 12.546875 L 11.453125 12.546875 L 11.453125 17.199219 L 11.449219 17.199219 C 11.449219 17.199219 11.472656 17.3125 11.472656 17.3125 C 11.472656 17.3125 11.539062 17.40625 11.539062 17.40625 C 11.539062 17.40625 11.632812 17.46875 11.632812 17.46875 C 11.632812 17.46875 11.742188 17.492188 11.746094 17.492188 L 12.253906 17.492188 C 12.253906 17.492188 12.367188 17.46875 12.367188 17.46875 C 12.367188 17.46875 12.460938 17.40625 12.460938 17.40625 C 12.460938 17.40625 12.527344 17.3125 12.527344 17.3125 C 12.527344 17.3125 12.546875 17.199219 12.546875 17.199219 L 12.546875 12.550781 L 17.199219 12.550781 C 17.199219 12.550781 17.3125 12.523438 17.3125 12.523438 C 17.316406 12.523438 17.40625 12.460938 17.40625 12.460938 C 17.40625 12.460938 17.472656 12.371094 17.472656 12.371094 C 17.472656 12.371094 17.492188 12.253906 17.492188 12.253906 L 17.492188 11.746094 C 17.492188 11.746094 17.472656 11.632812 17.472656 11.632812 C 17.472656 11.632812 17.40625 11.535156 17.40625 11.535156 C 17.40625 11.535156 17.3125 11.472656 17.3125 11.472656 C 17.3125 11.472656 17.199219 11.449219 17.199219 11.449219 L 12.546875 11.449219 L 12.546875 6.800781 C 12.546875 6.800781 12.527344 6.6875 12.527344 6.6875 C 12.527344 6.6875 12.460938 6.589844 12.460938 6.589844 C 12.460938 6.589844 12.367188 6.527344 12.367188 6.527344 C 12.367188 6.527344 12.253906 6.507812 12.253906 6.507812 Z M 11.742188 6.507812 "/>
</g>
</svg>
