<?xml version="1.0" standalone="no"?>
<!DOCTYPE svg PUBLIC "-//W3C//DTD SVG 20010904//EN"
 "http://www.w3.org/TR/2001/REC-SVG-20010904/DTD/svg10.dtd">
<svg version="1.0" xmlns="http://www.w3.org/2000/svg"
 width="512.000000pt" height="512.000000pt" viewBox="0 0 512.000000 512.000000"
 preserveAspectRatio="xMidYMid meet">

<g transform="translate(0.000000,512.000000) scale(0.100000,-0.100000)"
fill="#000000" stroke="none">
<path d="M3200 4548 c-110 -56 -121 -236 -19 -309 l34 -24 363 -3 c199 -1 362
-6 362 -9 0 -4 -60 -68 -134 -143 -145 -147 -155 -165 -143 -252 14 -105 141
-176 244 -137 15 5 86 68 158 140 72 71 134 129 138 129 3 0 8 -163 9 -362 l3
-363 24 -34 c73 -101 250 -91 308 19 l23 43 0 596 0 597 -22 44 c-17 33 -35
51 -68 68 l-44 22 -596 0 -596 0 -44 -22z"/>
<path d="M3230 3470 c-19 -10 -103 -87 -187 -172 -162 -164 -183 -198 -169
-271 13 -71 82 -140 153 -153 74 -14 107 7 275 174 87 86 165 171 174 190 36
77 0 184 -80 233 -40 25 -119 24 -166 -1z"/>
<path d="M2465 2706 c-16 -8 -100 -85 -187 -172 -130 -133 -158 -166 -168
-202 -35 -132 90 -257 222 -222 36 10 69 37 200 168 87 85 164 170 173 188 18
38 20 116 4 147 -17 32 -60 77 -91 93 -34 18 -113 17 -153 0z"/>
<path d="M1710 1924 c-38 -16 -333 -303 -356 -346 -18 -35 -18 -121 0 -156 47
-91 157 -128 244 -83 20 11 105 88 188 173 119 120 154 162 163 193 13 49 13
51 1 97 -14 50 -55 97 -105 119 -48 22 -88 23 -135 3z"/>
<path d="M920 1155 c-44 -20 -325 -297 -351 -347 -75 -144 93 -314 237 -240
61 32 339 318 354 366 45 141 -106 280 -240 221z"/>
</g>
</svg>
