<?xml version="1.0" encoding="UTF-8"?>
<svg xmlns="http://www.w3.org/2000/svg" xmlns:xlink="http://www.w3.org/1999/xlink" width="24px" height="24px" viewBox="0 0 24 15" version="1.1">
<g _id="surface1">
<path style=" stroke:none;fill-rule:nonzero;fill:rgb(0%,0%,0%);fill-opacity:1;" d="M 0.734375 0.046875 C 0.511719 0.113281 0.257812 0.308594 0.136719 0.511719 L 0.0234375 0.703125 L 0.0078125 7.433594 C -0.00390625 14.867188 -0.0234375 14.359375 0.292969 14.707031 C 0.582031 15.027344 -0.40625 15.003906 12.074219 14.992188 L 23.324219 14.976562 L 23.519531 14.855469 C 23.625 14.785156 23.773438 14.632812 23.84375 14.515625 L 23.976562 14.296875 L 23.992188 7.601562 C 24 2.765625 23.984375 0.847656 23.949219 0.710938 C 23.878906 0.460938 23.523438 0.117188 23.269531 0.0507812 C 23.039062 -0.0078125 0.945312 -0.0117188 0.734375 0.046875 Z M 23.171875 0.542969 C 23.238281 0.566406 23.335938 0.652344 23.386719 0.734375 C 23.480469 0.882812 23.480469 0.964844 23.480469 7.492188 C 23.480469 14.652344 23.496094 14.257812 23.238281 14.429688 C 23.144531 14.492188 22.007812 14.5 11.992188 14.5 L 0.847656 14.5 L 0.695312 14.371094 L 0.542969 14.238281 L 0.527344 7.558594 C 0.519531 0.941406 0.519531 0.882812 0.613281 0.734375 C 0.664062 0.652344 0.753906 0.566406 0.8125 0.542969 C 0.960938 0.488281 23.015625 0.484375 23.171875 0.542969 Z M 23.171875 0.542969 "/>
<path style=" stroke:none;fill-rule:nonzero;fill:rgb(0%,0%,0%);fill-opacity:1;" d="M 5.980469 3.066406 C 5.929688 3.113281 5.859375 3.222656 5.824219 3.3125 C 5.785156 3.417969 5.546875 3.671875 5.128906 4.066406 L 4.492188 4.660156 L 4.382812 4.574219 C 4.234375 4.453125 3.953125 4.460938 3.820312 4.578125 C 3.765625 4.632812 3.71875 4.691406 3.71875 4.714844 C 3.71875 4.738281 3.476562 4.757812 3.132812 4.757812 C 2.710938 4.757812 2.535156 4.777344 2.5 4.816406 C 2.390625 4.945312 2.542969 4.984375 3.140625 4.984375 C 3.589844 4.984375 3.71875 5 3.71875 5.042969 C 3.71875 5.128906 3.859375 5.242188 4.015625 5.28125 C 4.210938 5.328125 4.421875 5.226562 4.511719 5.03125 C 4.554688 4.933594 4.867188 4.605469 5.246094 4.25 L 5.90625 3.632812 L 6.019531 3.71875 C 6.078125 3.765625 6.1875 3.808594 6.257812 3.808594 C 6.40625 3.808594 6.617188 3.667969 6.660156 3.535156 C 6.6875 3.449219 6.734375 3.445312 7.296875 3.445312 C 7.808594 3.445312 7.914062 3.429688 7.9375 3.375 C 7.953125 3.335938 7.949219 3.289062 7.929688 3.273438 C 7.914062 3.253906 7.625 3.234375 7.289062 3.226562 C 6.714844 3.214844 6.671875 3.203125 6.566406 3.101562 C 6.421875 2.96875 6.132812 2.949219 5.980469 3.066406 Z M 5.980469 3.066406 "/>
<path style=" stroke:none;fill-rule:nonzero;fill:rgb(0%,0%,0%);fill-opacity:1;" d="M 5.980469 4.511719 C 5.683594 4.75 5.847656 5.210938 6.230469 5.210938 C 6.457031 5.210938 6.535156 5.175781 6.613281 5.027344 L 6.683594 4.898438 L 7.308594 4.886719 C 7.890625 4.871094 7.929688 4.867188 7.929688 4.78125 C 7.929688 4.695312 7.890625 4.691406 7.308594 4.675781 C 6.6875 4.664062 6.6875 4.664062 6.546875 4.53125 C 6.367188 4.359375 6.179688 4.355469 5.980469 4.511719 Z M 5.980469 4.511719 "/>
<path style=" stroke:none;fill-rule:nonzero;fill:rgb(0%,0%,0%);fill-opacity:1;" d="M 5.980469 5.78125 C 5.683594 6.019531 5.847656 6.480469 6.230469 6.480469 C 6.457031 6.480469 6.535156 6.445312 6.613281 6.292969 L 6.683594 6.167969 L 7.308594 6.152344 C 7.890625 6.140625 7.929688 6.136719 7.929688 6.050781 C 7.929688 5.964844 7.890625 5.960938 7.308594 5.945312 C 6.6875 5.933594 6.6875 5.933594 6.546875 5.800781 C 6.367188 5.628906 6.179688 5.625 5.980469 5.78125 Z M 5.980469 5.78125 "/>
</g>
</svg>
