<?xml version="1.0" encoding="UTF-8"?>
<svg xmlns="http://www.w3.org/2000/svg" xmlns:xlink="http://www.w3.org/1999/xlink" width="24px" height="24px" viewBox="0 0 24 15" version="1.1">
<g _id="surface1">
<path style=" stroke:none;fill-rule:nonzero;fill:rgb(0%,0%,0%);fill-opacity:1;" d="M 0.734375 0.046875 C 0.511719 0.113281 0.257812 0.308594 0.136719 0.511719 L 0.0234375 0.703125 L 0.0078125 7.433594 C -0.00390625 14.867188 -0.0234375 14.359375 0.292969 14.707031 C 0.582031 15.027344 -0.40625 15.003906 12.074219 14.992188 L 23.324219 14.976562 L 23.519531 14.855469 C 23.625 14.785156 23.773438 14.632812 23.84375 14.515625 L 23.976562 14.296875 L 23.992188 7.601562 C 24 2.765625 23.984375 0.847656 23.949219 0.710938 C 23.878906 0.460938 23.523438 0.117188 23.269531 0.0507812 C 23.039062 -0.0078125 0.945312 -0.0117188 0.734375 0.046875 Z M 23.171875 0.542969 C 23.238281 0.566406 23.335938 0.652344 23.386719 0.734375 C 23.480469 0.882812 23.480469 0.964844 23.480469 7.492188 C 23.480469 14.652344 23.496094 14.257812 23.238281 14.429688 C 23.144531 14.492188 22.007812 14.5 11.992188 14.5 L 0.847656 14.5 L 0.695312 14.371094 L 0.542969 14.238281 L 0.527344 7.558594 C 0.519531 0.941406 0.519531 0.882812 0.613281 0.734375 C 0.664062 0.652344 0.753906 0.566406 0.8125 0.542969 C 0.960938 0.488281 23.015625 0.484375 23.171875 0.542969 Z M 23.171875 0.542969 "/>
<path style=" stroke:none;fill-rule:nonzero;fill:rgb(0%,0%,0%);fill-opacity:1;" d="M 6.109375 2.976562 C 5.714844 3.035156 5.546875 3.6875 5.855469 3.984375 C 5.953125 4.074219 6.03125 4.101562 6.28125 4.113281 C 6.578125 4.132812 6.59375 4.128906 6.753906 3.972656 C 6.898438 3.832031 6.917969 3.789062 6.917969 3.585938 C 6.917969 3.332031 6.824219 3.109375 6.691406 3.039062 C 6.582031 2.988281 6.269531 2.949219 6.109375 2.976562 Z M 6.578125 3.246094 C 6.71875 3.339844 6.734375 3.78125 6.59375 3.851562 C 6.445312 3.925781 6.113281 3.90625 6.015625 3.820312 C 5.890625 3.714844 5.894531 3.386719 6.023438 3.261719 C 6.136719 3.152344 6.429688 3.140625 6.578125 3.246094 Z M 6.578125 3.246094 "/>
<path style=" stroke:none;fill-rule:nonzero;fill:rgb(0%,0%,0%);fill-opacity:1;" d="M 2.972656 4.351562 C 2.652344 4.421875 2.5 4.71875 2.582031 5.078125 C 2.644531 5.34375 2.765625 5.445312 3.054688 5.472656 C 3.359375 5.5 3.511719 5.460938 3.652344 5.316406 C 3.746094 5.214844 3.765625 5.152344 3.765625 4.90625 C 3.765625 4.644531 3.75 4.601562 3.628906 4.480469 C 3.554688 4.410156 3.449219 4.351562 3.402344 4.351562 C 3.355469 4.351562 3.273438 4.339844 3.222656 4.332031 C 3.171875 4.320312 3.058594 4.328125 2.972656 4.351562 Z M 3.464844 4.625 C 3.570312 4.738281 3.585938 5.070312 3.488281 5.179688 C 3.398438 5.285156 2.980469 5.285156 2.859375 5.179688 C 2.738281 5.074219 2.75 4.773438 2.878906 4.636719 C 3.015625 4.496094 3.335938 4.492188 3.464844 4.625 Z M 3.464844 4.625 "/>
<path style=" stroke:none;fill-rule:nonzero;fill:rgb(0%,0%,0%);fill-opacity:1;" d="M 6.109375 4.335938 C 5.714844 4.394531 5.546875 5.046875 5.855469 5.34375 C 5.953125 5.433594 6.03125 5.460938 6.28125 5.472656 C 6.578125 5.492188 6.59375 5.488281 6.753906 5.332031 C 6.898438 5.191406 6.917969 5.148438 6.917969 4.945312 C 6.917969 4.691406 6.824219 4.46875 6.691406 4.398438 C 6.582031 4.347656 6.269531 4.308594 6.109375 4.335938 Z M 6.578125 4.605469 C 6.71875 4.699219 6.734375 5.140625 6.59375 5.210938 C 6.445312 5.285156 6.113281 5.265625 6.015625 5.179688 C 5.890625 5.074219 5.894531 4.746094 6.023438 4.621094 C 6.136719 4.511719 6.429688 4.5 6.578125 4.605469 Z M 6.578125 4.605469 "/>
<path style=" stroke:none;fill-rule:nonzero;fill:rgb(0%,0%,0%);fill-opacity:1;" d="M 4.785156 4.699219 C 4.765625 4.714844 4.753906 4.765625 4.753906 4.8125 C 4.753906 4.878906 4.714844 4.894531 4.492188 4.894531 C 4.296875 4.894531 4.234375 4.90625 4.234375 4.960938 C 4.234375 5.015625 4.296875 5.03125 4.492188 5.03125 C 4.75 5.03125 4.753906 5.03125 4.753906 5.167969 C 4.753906 5.242188 4.777344 5.300781 4.808594 5.300781 C 4.894531 5.300781 5.128906 5.070312 5.128906 4.984375 C 5.128906 4.945312 5.066406 4.859375 4.996094 4.789062 C 4.855469 4.660156 4.832031 4.648438 4.785156 4.699219 Z M 4.785156 4.699219 "/>
<path style=" stroke:none;fill-rule:nonzero;fill:rgb(0%,0%,0%);fill-opacity:1;" d="M 6.113281 5.695312 C 6.042969 5.707031 5.929688 5.777344 5.855469 5.851562 C 5.730469 5.972656 5.71875 6.019531 5.71875 6.28125 C 5.71875 6.558594 5.726562 6.589844 5.871094 6.710938 C 6 6.820312 6.066406 6.84375 6.28125 6.84375 C 6.421875 6.84375 6.589844 6.820312 6.648438 6.792969 C 6.988281 6.644531 7.011719 5.964844 6.6875 5.769531 C 6.589844 5.710938 6.277344 5.667969 6.113281 5.695312 Z M 6.613281 5.980469 C 6.714844 6.0625 6.707031 6.492188 6.601562 6.574219 C 6.558594 6.613281 6.421875 6.640625 6.296875 6.640625 C 6.015625 6.640625 5.929688 6.554688 5.929688 6.277344 C 5.929688 6.085938 5.992188 5.96875 6.117188 5.917969 C 6.222656 5.882812 6.535156 5.917969 6.613281 5.980469 Z M 6.613281 5.980469 "/>
</g>
</svg>
