<?xml version="1.0" encoding="UTF-8"?>
<svg xmlns="http://www.w3.org/2000/svg" xmlns:xlink="http://www.w3.org/1999/xlink" width="24px" height="24px" viewBox="0 0 24 15" version="1.1">
<g _id="surface1">
<path style=" stroke:none;fill-rule:nonzero;fill:rgb(0%,0%,0%);fill-opacity:1;" d="M 0.734375 0.046875 C 0.511719 0.113281 0.257812 0.308594 0.136719 0.511719 L 0.0234375 0.699219 L 0.0078125 7.410156 C -0.00390625 14.824219 -0.0234375 14.316406 0.292969 14.660156 C 0.582031 14.980469 -0.40625 14.960938 12.074219 14.945312 L 23.324219 14.933594 L 23.519531 14.808594 C 23.625 14.742188 23.773438 14.589844 23.84375 14.472656 L 23.976562 14.253906 L 23.992188 7.578125 C 24 2.757812 23.984375 0.84375 23.949219 0.710938 C 23.878906 0.460938 23.523438 0.117188 23.269531 0.0507812 C 23.039062 -0.0078125 0.945312 -0.0117188 0.734375 0.046875 Z M 23.171875 0.542969 C 23.238281 0.566406 23.335938 0.652344 23.386719 0.730469 C 23.480469 0.882812 23.480469 0.960938 23.480469 7.46875 C 23.480469 14.605469 23.496094 14.214844 23.238281 14.386719 C 23.144531 14.449219 22.007812 14.457031 11.992188 14.457031 L 0.847656 14.457031 L 0.695312 14.328125 L 0.542969 14.195312 L 0.527344 7.535156 C 0.519531 0.941406 0.519531 0.882812 0.613281 0.730469 C 0.664062 0.652344 0.753906 0.566406 0.8125 0.542969 C 0.960938 0.488281 23.015625 0.484375 23.171875 0.542969 Z M 23.171875 0.542969 "/>
<path style=" stroke:none;fill-rule:nonzero;fill:rgb(0%,0%,0%);fill-opacity:1;" d="M 9.269531 10.121094 L 9.269531 12.742188 L 14.730469 12.742188 L 14.730469 7.5 L 9.269531 7.5 Z M 14.210938 10.121094 L 14.210938 12.242188 L 9.742188 12.242188 L 9.742188 7.996094 L 14.210938 7.996094 Z M 14.210938 10.121094 "/>
<path style=" stroke:none;fill-rule:nonzero;fill:rgb(0%,0%,0%);fill-opacity:1;" d="M 11.90625 9.105469 L 11.90625 10.121094 L 10.894531 10.121094 C 9.914062 10.121094 9.882812 10.125 9.882812 10.210938 C 9.882812 10.296875 9.914062 10.300781 10.894531 10.300781 L 11.90625 10.300781 L 11.90625 11.226562 C 11.90625 12.121094 11.910156 12.152344 12 12.152344 C 12.089844 12.152344 12.09375 12.121094 12.09375 11.226562 L 12.09375 10.300781 L 13.105469 10.300781 C 14.085938 10.300781 14.117188 10.296875 14.117188 10.210938 C 14.117188 10.125 14.085938 10.121094 13.105469 10.121094 L 12.09375 10.121094 L 12.09375 9.105469 C 12.09375 8.117188 12.089844 8.085938 12 8.085938 C 11.910156 8.085938 11.90625 8.117188 11.90625 9.105469 Z M 11.90625 9.105469 "/>
</g>
</svg>
