<?xml version="1.0" encoding="UTF-8"?>
<svg xmlns="http://www.w3.org/2000/svg" xmlns:xlink="http://www.w3.org/1999/xlink" width="24px" height="24px" viewBox="0 0 24 24" version="1.1">
<g _id="surface1">
<path style=" stroke:none;fill-rule:nonzero;fill:rgb(0%,0%,0%);fill-opacity:1;" d="M 0 12.207031 L 0 24.417969 L 24.417969 24.417969 L 24.417969 0 L 0 0 Z M 22.121094 12.207031 L 22.121094 22.121094 L 2.296875 22.121094 L 2.296875 2.296875 L 22.121094 2.296875 Z M 22.121094 12.207031 "/>
<path style=" stroke:none;fill-rule:nonzero;fill:rgb(0%,0%,0%);fill-opacity:1;" d="M 11.832031 2.859375 C 11.75 2.921875 11.6875 5.03125 11.6875 7.535156 L 11.6875 12.105469 L 7.261719 12.144531 C 3.234375 12.207031 2.816406 12.25 2.753906 12.5625 C 2.691406 12.917969 3.003906 12.9375 7.179688 12.9375 L 11.6875 12.9375 L 11.730469 17.257812 C 11.792969 21.183594 11.832031 21.601562 12.144531 21.664062 C 12.480469 21.726562 12.523438 21.371094 12.5625 17.382812 L 12.625 13.042969 L 17.175781 12.980469 C 21.371094 12.9375 21.726562 12.898438 21.664062 12.5625 C 21.601562 12.25 21.160156 12.207031 17.050781 12.144531 L 12.523438 12.105469 L 12.523438 7.410156 C 12.523438 3.632812 12.460938 2.714844 12.25 2.714844 C 12.082031 2.714844 11.894531 2.777344 11.832031 2.859375 Z M 11.832031 2.859375 "/>
</g>
</svg>
